# xmcd
# 
# Track frame offsets:
#     183
#     15758
#     36950
#     55880
#     73860
#     87870
#     104135
#     125623
#     137415
#     155483
#     170663
# 
# Disc length: 2636
# 
# Revision: 0
# Processed by: cddbd v1.5.2PL0 Copyright (c) Steve Scherf et al.
# Submitted via: fre:ac v1.0.17
# 
DISCID=930a4a0b
DTITLE=Nashville Train - Friday Night
DYEAR=0
DGENRE=Country
TTITLE0=y
TTITLE1=Do you love me
TTITLE2=Will the circle be unbroken
TTITLE3=y
TTITLE4=y
TTITLE5=y
TTITLE6=Take me home Country road
TTITLE7=y
TTITLE8=Dueling Banjos
TTITLE9=Ashes of love
TTITLE10=Feel like going home
EXTD=
EXTT0=
EXTT1=
EXTT2=
EXTT3=
EXTT4=
EXTT5=
EXTT6=
EXTT7=
EXTT8=
EXTT9=
EXTT10=
PLAYORDER=
